<?xml version="1.0" encoding="UTF-8"?>
<svg xmlns="http://www.w3.org/2000/svg" width="266" height="266" version="1.1" viewBox="0 0 266 266">
  <g id="Layer_1" data-name="Layer 1">
    <circle cx="131.5" cy="134.5" r="109.5" fill="#008fac" stroke-width="0"/>
    <circle cx="-378" cy="270" r="247" fill="#008fac" stroke-width="0"/>
  </g>
  <g id="Layer_2" data-name="Layer 2">
    <text/>
    <path d="M197.76,105.09c-11.53,1.33-22.61,6.21-37.68,17.29-14.68,10.8-22.35,18.3-31.41,24.1-.02-.2-.04-.4-.07-.6-1.77-12.41-3.1-15.96-14.63-27.04,8.08-2.23,30.61.2,52.53-12.19,15.29-8.64,21.49-26.31,21.5-26.38,8.2-43.67-47.88-51.87-78.91-40.34-31.32,11.63-49.58,29.37-57.19,40.79-12.87,18.71-12.81,34.45-9.31,43,3.99,9.75,20.97,16.2,35.48-.95,4.88-5.76-2.22-15.52-13.74-9.75-.43.22-5.96,3.57-6.21,3.99-1.61,2.76,11.53-4.43,11.53,2.66,0,6.64-13.21,12.07-17.75,4.5-5.15-8.58,0-23.5,12.41-39.01,11.25-14.06,29.4-22.91,41.53-26.56,31.84-9.57,61.99,2.4,62.43,25.45,0,.04.23,8.2-5.76,14.19-15.52,15.52-53.42,14.41-58.47,12.38,9.03-22.31,32.3-41.88,39.63-43.63-15.27-2.23-41.67,11.08-54.97,46.55-3.79,9.91-7.44,20.1-11.11,28.93-10.8-5.86-26.42-9.26-36.33-1-20.48,17.07-.63,49.66,23.94,45.66,11.42-1.86,19.35-12.64,25.54-29.36.09.05.15.09.17.1,6.17,2.9,13.59,4.05,21.08,3.77.13,2.98.34,6.11.64,9.53.91,10.35,3.5,20.42,6.53,27.65-3.4-.4-6.98-.6-14.96.28-19.36,2.15-37.72,29.26-7.98,29.26,10.64,0,19.95-3.55,32.03-17.29,8.33,11.46,15.87,17.23,32.71,16.34,14.34-.75,40.41-20.1,53.64-40.34,22.61-34.58,25.56-86.84-16.86-81.95ZM61.22,167.15c-12.86,4.43-27.12-9.02-12.41-21.72,5.95-5.14,17.38-2.36,26.88,1.5-4.68,10.59-9.4,18.48-14.46,20.22ZM92.73,152.02c3.26-10.05,6.05-21.85,8.67-34.89l.62-1.59c1.87,1.43,11.95,3.29,10.62,24.13-.51,5.01-.78,9.68-.8,14.58-9.43,2.3-14.34.17-19.11-2.23ZM98.01,218.58c-14.28.62.44-15.52,14.97-14.93,2.46.1,4.73.16,6.81.48-2.91,2.87-11.58,14.01-21.78,14.45ZM177.38,208.76c-19.35,13.03-32.36,8.42-40.79-9.75,3.38-5.29,7.48-10.91,12.4-18.55,13.3-24.83,37.56-36.99,52.31-40.34-17.78-3.19-44.09,6.12-64.71,37.26-2.12,3.19-4.12,6.12-6.03,8.81-.23-.71-.45-1.43-.64-2.18-2.82-11.26-2.38-18.82-1.76-25.17,4.96-1.55,9.53-3.69,13.29-6.3,14.13-9.81,35.98-28.53,51.87-28.37,41.88.12,16.78,62.57-15.94,84.61Z" fill="#fff" stroke="#4f4f4f" stroke-miterlimit="10"/>
    <path d="M-228.54,203.65c-26,3-51,14-85,39-33.12,24.35-50.42,41.27-70.85,54.36-.05-.45-.09-.9-.15-1.36-4-28-7-36-33-61,18.23-5.02,69.05.45,118.5-27.5,34.5-19.5,48.47-59.34,48.5-59.5,18.5-98.5-108-117-178-91-70.65,26.24-111.84,66.26-129,92-29.02,42.21-28.89,77.72-21,97,9,22,47.29,36.55,80.04-2.15,11-13-5-35-31-22-.98.49-13.45,8.05-14,9-3.64,6.22,26-10,26,6,0,14.97-29.79,27.23-40.04,10.15-11.61-19.35,0-53,28-88,25.37-31.71,66.33-51.68,93.68-59.91,71.82-21.59,139.82,5.41,140.82,57.41,0,.09.51,18.49-13,32-35,35-120.5,32.5-131.88,27.92,20.38-50.34,72.87-94.47,89.38-98.42-34.44-5.03-94,25-124,105-8.55,22.35-16.79,45.35-25.05,65.27-24.36-13.22-59.6-20.89-81.95-2.27-46.2,38.5-1.41,112.02,54,103,25.77-4.2,43.64-28.51,57.62-66.23.2.12.35.21.38.23,13.92,6.55,30.65,9.13,47.55,8.5.3,6.71.77,13.79,1.45,21.5,2.04,23.35,7.9,46.06,14.74,62.36-7.67-.9-15.74-1.36-33.74.64-43.66,4.85-85.08,66-18,66,24,0,45-8,72.25-39.01,18.79,25.86,35.79,38.86,73.79,36.86,32.34-1.7,91.15-45.34,121-91,51-78,57.66-195.89-38.04-184.85ZM-536.54,343.65c-29,10-61.17-20.35-28-49,13.42-11.59,39.2-5.32,60.63,3.38-10.55,23.88-21.21,41.68-32.63,45.62ZM-465.45,309.53c7.36-22.67,13.65-49.29,19.55-78.71l1.41-3.6c4.22,3.24,26.95,7.43,23.95,54.43-1.16,11.31-1.76,21.83-1.8,32.9-21.28,5.2-32.35.37-43.11-5.03ZM-453.54,459.65c-32.22,1.4,1-35,33.76-33.68,5.54.22,10.66.36,15.36,1.08-6.57,6.48-26.12,31.6-49.12,32.6ZM-274.5,437.5c-43.66,29.39-73,19-92-22,7.63-11.93,16.88-24.6,27.96-41.85,30-56,84.73-83.44,118-91-40.1-7.2-99.46,13.81-145.96,84.05-4.77,7.21-9.29,13.82-13.61,19.86-.52-1.6-1.01-3.23-1.43-4.91-6.35-25.4-5.37-42.46-3.98-56.78,11.18-3.5,21.49-8.32,29.98-14.22,31.87-22.13,81.17-64.36,117-64,94.47.28,37.86,141.15-35.96,190.85Z" fill="#fff" stroke="#4f4f4f" stroke-miterlimit="10"/>
  </g>
  <g id="Layer_3" data-name="Layer 3">
    <rect x="-2127.03" y="-3.88" width="126.95" height="127.17" fill="#008fac" stroke-width="0"/>
    <rect x="-1825.24" y=".12" width="127.46" height="127.46" fill="#4f4f4f" stroke-width="0"/>
    <rect x="-1827.77" y="340.12" width="127.46" height="127.46" fill="#d9c4fa" stroke-width="0"/>
    <rect x="-2131.02" y="321.12" width="127.46" height="127.46" fill="#6897c4" stroke-width="0"/>
    <text transform="translate(-2156.08 543.93)" fill="#000" font-family="MyriadPro-Regular, &apos;Myriad Pro&apos;" font-size="53.1"><tspan x="0" y="0">6897C4</tspan></text>
    <rect x="-1423.67" y="-122.88" width="127.46" height="127.46" fill="none" stroke="#4f4f4f" stroke-miterlimit="10" stroke-width=".75"/>
    <text transform="translate(-2143.09 205.81)" fill="#000" font-family="MyriadPro-Regular, &apos;Myriad Pro&apos;" font-size="59.02"><tspan x="0" y="0">008FAC</tspan></text>
    <text transform="translate(-1827.8 226.46)" fill="#000" font-family="MyriadPro-Regular, &apos;Myriad Pro&apos;" font-size="50.83"><tspan x="0" y="0">4F4F4F</tspan></text>
    <text transform="translate(-1855.6 561.52)" fill="#000" font-family="MyriadPro-Regular, &apos;Myriad Pro&apos;" font-size="58.29"><tspan x="0" y="0">D9C4FA</tspan></text>
  </g>
</svg>